<svg width="60" height="60" viewBox="0 0 60 60" fill="none" xmlns="http://www.w3.org/2000/svg">
<rect width="60" height="60" rx="10" fill="#E2FFF3"/>
<path d="M15 25V43.3333C15 44.2538 15.7462 45 16.6667 45H35" stroke="#3CD856" stroke-width="1.8" stroke-linecap="round" stroke-linejoin="round"/>
<path d="M23.3341 38.3333L43.3341 38.3333C44.2546 38.3333 45.0008 37.5871 45.0008 36.6667L45.0008 16.6667C45.0008 15.7462 44.2546 15 43.3341 15L23.3341 15C22.4137 15 21.6675 15.7462 21.6675 16.6667L21.6675 36.6667C21.6675 37.5871 22.4137 38.3333 23.3341 38.3333Z" stroke="#3CD856" stroke-width="1.8" stroke-linecap="round" stroke-linejoin="round"/>
<path d="M32.4325 31.6665C32.4325 32.1636 32.8355 32.5665 33.3325 32.5665C33.8296 32.5665 34.2325 32.1636 34.2325 31.6665H32.4325ZM34.2325 21.6665C34.2325 21.1694 33.8296 20.7665 33.3325 20.7665C32.8355 20.7665 32.4325 21.1694 32.4325 21.6665H34.2325ZM34.2325 31.6665V21.6665H32.4325V31.6665H34.2325Z" fill="#3CD856"/>
<path d="M28.3325 25.7665C27.8355 25.7665 27.4325 26.1694 27.4325 26.6665C27.4325 27.1636 27.8355 27.5665 28.3325 27.5665L28.3325 25.7665ZM38.3325 27.5665C38.8296 27.5665 39.2325 27.1636 39.2325 26.6665C39.2325 26.1694 38.8296 25.7665 38.3325 25.7665V27.5665ZM28.3325 27.5665L38.3325 27.5665V25.7665L28.3325 25.7665L28.3325 27.5665Z" fill="#3CD856"/>
</svg>
