<svg width="60" height="60" viewBox="0 0 60 60" fill="none" xmlns="http://www.w3.org/2000/svg">
<rect width="60" height="60" rx="10" fill="#E9F2FF"/>
<path d="M35.8923 18.2149L31.1782 13.5009C30.5274 12.85 29.4721 12.85 28.8212 13.5009L24.1072 18.2149C23.4563 18.8658 23.4563 19.921 24.1072 20.5719L28.8212 25.286C29.4721 25.9368 30.5274 25.9368 31.1782 25.286L35.8923 20.5719C36.5432 19.921 36.5432 18.8658 35.8923 18.2149Z" stroke="#2F80ED" stroke-width="1.8" stroke-linecap="round" stroke-linejoin="round"/>
<path d="M25.286 28.8216L20.5719 24.1075C19.921 23.4567 18.8658 23.4567 18.2149 24.1075L13.5009 28.8216C12.85 29.4725 12.85 30.5277 13.5009 31.1786L18.2149 35.8927C18.8658 36.5435 19.921 36.5435 20.5719 35.8927L25.286 31.1786C25.9368 30.5277 25.9368 29.4725 25.286 28.8216Z" stroke="#2F80ED" stroke-width="1.8" stroke-linecap="round" stroke-linejoin="round"/>
<path d="M46.4985 28.8216L41.7844 24.1075C41.1336 23.4567 40.0783 23.4567 39.4274 24.1075L34.7134 28.8216C34.0625 29.4725 34.0625 30.5277 34.7134 31.1786L39.4274 35.8927C40.0783 36.5435 41.1336 36.5435 41.7844 35.8927L46.4985 31.1786C47.1494 30.5277 47.1494 29.4725 46.4985 28.8216Z" stroke="#2F80ED" stroke-width="1.8" stroke-linecap="round" stroke-linejoin="round"/>
<path d="M35.8923 39.4283L31.1782 34.7142C30.5274 34.0634 29.4721 34.0634 28.8212 34.7142L24.1072 39.4283C23.4563 40.0791 23.4563 41.1344 24.1072 41.7853L28.8212 46.4993C29.4721 47.1502 30.5274 47.1502 31.1782 46.4993L35.8923 41.7853C36.5432 41.1344 36.5432 40.0791 35.8923 39.4283Z" stroke="#2F80ED" stroke-width="1.8" stroke-linecap="round" stroke-linejoin="round"/>
</svg>
