<?xml version="1.0" encoding="utf-8"?>
<!-- Generator: Adobe Illustrator 26.0.3, SVG Export Plug-In . SVG Version: 6.00 Build 0)  -->
<svg version="1.1" id="Layer_1" xmlns="http://www.w3.org/2000/svg" xmlns:xlink="http://www.w3.org/1999/xlink" x="0px" y="0px"
	 viewBox="0 0 273.6 273.6" style="enable-background:new 0 0 273.6 273.6;" xml:space="preserve">
<style type="text/css">
	.logo-st0{fill:#051E57;}
</style>
<g>
	<g>
		<path class="logo-st0" d="M79.6,168.6c-5.1,0-9.2,4.1-9.2,9.2c0,5,4.1,9.2,9.2,9.2c5,0,9.2-4.1,9.2-9.2
			C88.7,172.7,84.6,168.6,79.6,168.6z"/>
		<path class="logo-st0" d="M79.6,196.1c-5.1,0-9.2,4.1-9.2,9.2c0,5,4.1,9.2,9.2,9.2c5,0,9.2-4.1,9.2-9.2S84.6,196.1,79.6,196.1z"/>
		<path class="logo-st0" d="M79.6,141.1c-5.1,0-9.2,4.1-9.2,9.2s4.1,9.2,9.2,9.2c5,0,9.2-4.1,9.2-9.2C88.7,145.2,84.6,141.1,79.6,141.1z"
			/>
		<path class="logo-st0" d="M79.6,113.7c-5.1,0-9.2,4.1-9.2,9.2s4.1,9.2,9.2,9.2c5,0,9.2-4.1,9.2-9.2C88.8,117.8,84.6,113.7,79.6,113.7z"
			/>
		<path class="logo-st0" d="M79.6,86.2c-5.1,0-9.2,4.1-9.2,9.2c0,5,4.1,9.2,9.2,9.2c5,0,9.2-4.1,9.2-9.2C88.7,90.3,84.6,86.2,79.6,86.2z"
			/>
		<path class="logo-st0" d="M79.6,58.8c-5.1,0-9.2,4.1-9.2,9.2s4.1,9.2,9.2,9.2c5,0,9.2-4.1,9.2-9.2C88.7,63,84.6,58.8,79.6,58.8z"/>
		<path class="logo-st0" d="M79.6,31.5c-5.1,0-9.2,4.1-9.2,9.2s4.1,9.2,9.2,9.2c5,0,9.2-4.1,9.2-9.2C88.7,35.6,84.6,31.5,79.6,31.5z"/>
		<ellipse class="logo-st0" cx="56.6" cy="95.4" rx="9.2" ry="9.2"/>
		<path class="logo-st0" d="M56.6,58.8c-5.1,0-9.2,4.1-9.2,9.2s4.1,9.2,9.2,9.2s9.2-4.1,9.2-9.2C65.8,63,61.7,58.8,56.6,58.8z"/>
		<path class="logo-st0" d="M56.6,31.5c-5.1,0-9.2,4.1-9.2,9.2c0,5,4.1,9.2,9.2,9.2s9.2-4.1,9.2-9.2S61.7,31.5,56.6,31.5z"/>
		<path class="logo-st0" d="M56.6,168.6c-5.1,0-9.2,4.1-9.2,9.2c0,5,4.1,9.2,9.2,9.2s9.2-4.1,9.2-9.2S61.7,168.6,56.6,168.6z"/>
		<path class="logo-st0" d="M56.6,196.1c-5.1,0-9.2,4.1-9.2,9.2s4.1,9.2,9.2,9.2s9.2-4.1,9.2-9.2S61.7,196.1,56.6,196.1z"/>
		<path class="logo-st0" d="M56.6,141.1c-5.1,0-9.2,4.1-9.2,9.2c0,5,4.1,9.2,9.2,9.2s9.2-4.1,9.2-9.2S61.7,141.1,56.6,141.1z"/>
		<ellipse class="logo-st0" cx="56.6" cy="122.8" rx="9.2" ry="9.2"/>
		<path class="logo-st0" d="M79.6,251c-5.1,0-9.2,4.1-9.2,9.2s4.1,9.2,9.2,9.2c5,0,9.2-4.1,9.2-9.2C88.7,255.1,84.6,251,79.6,251z"/>
		<path class="logo-st0" d="M79.6,223.5c-5.1,0-9.2,4.1-9.2,9.2s4.1,9.2,9.2,9.2c5,0,9.2-4.1,9.2-9.2C88.7,227.6,84.6,223.5,79.6,223.5z"
			/>
		<path class="logo-st0" d="M56.6,223.5c-5.1,0-9.2,4.1-9.2,9.2c0,5,4.1,9.2,9.2,9.2s9.2-4.1,9.2-9.2S61.7,223.5,56.6,223.5z"/>
		<path class="logo-st0" d="M217.1,4.2c-5.1,0-9.2,4.1-9.2,9.2s4.1,9.2,9.2,9.2c5.1,0,9.2-4.1,9.2-9.2S222.2,4.2,217.1,4.2z"/>
		<path class="logo-st0" d="M194.2,31.5c-5,0-9.2,4.1-9.2,9.2s4.1,9.2,9.2,9.2c5.1,0,9.2-4.1,9.2-9.2S199.3,31.5,194.2,31.5z"/>
		<path class="logo-st0" d="M171.2,31.5c-5.1,0-9.2,4.1-9.2,9.2s4.1,9.2,9.2,9.2c5.1,0,9.2-4.1,9.2-9.2S176.2,31.5,171.2,31.5z"/>
		<path class="logo-st0" d="M148.2,31.5c-5.1,0-9.2,4.1-9.2,9.2s4.1,9.2,9.2,9.2c5,0,9.2-4.1,9.2-9.2S153.3,31.5,148.2,31.5z"/>
		<path class="logo-st0" d="M125.4,31.5c-5.1,0-9.2,4.1-9.2,9.2s4.1,9.2,9.2,9.2s9.2-4.1,9.2-9.2S130.4,31.5,125.4,31.5z"/>
		<path class="logo-st0" d="M102.5,31.5c-5,0-9.2,4.1-9.2,9.2s4.1,9.2,9.2,9.2c5.1,0,9.2-4.1,9.2-9.2C111.6,35.6,107.5,31.5,102.5,31.5z"
			/>
		<path class="logo-st0" d="M125.4,22.5c5.1,0,9.2-4.1,9.2-9.2c0-5-4.1-9.2-9.2-9.2s-9.2,4.1-9.2,9.2S120.3,22.5,125.4,22.5z"/>
		<path class="logo-st0" d="M102.5,22.5c5.1,0,9.2-4.1,9.2-9.2c0-5-4.1-9.2-9.2-9.2c-5,0-9.2,4.1-9.2,9.2S97.4,22.5,102.5,22.5z"/>
		<path class="logo-st0" d="M79.6,22.5c5,0,9.2-4.1,9.2-9.2c0-5-4.1-9.2-9.2-9.2c-5.1,0-9.2,4.1-9.2,9.2S74.5,22.5,79.6,22.5z"/>
		<path class="logo-st0" d="M203.4,13.3c0-5-4.1-9.2-9.2-9.2c-5,0-9.2,4.1-9.2,9.2s4.1,9.2,9.2,9.2C199.3,22.5,203.4,18.4,203.4,13.3z"/>
		<path class="logo-st0" d="M180.3,13.3c0-5-4.1-9.2-9.2-9.2s-9.2,4.1-9.2,9.2s4.1,9.2,9.2,9.2C176.2,22.5,180.3,18.4,180.3,13.3z"/>
		<path class="logo-st0" d="M148.2,22.5c5.1,0,9.2-4.1,9.2-9.2c0-5-4.1-9.2-9.2-9.2c-5.1,0-9.2,4.1-9.2,9.2
			C139.1,18.4,143.2,22.5,148.2,22.5z"/>
		<path class="logo-st0" d="M148.3,141.1c-5.1,0-9.2,4.1-9.2,9.2s4.1,9.2,9.2,9.2c5,0,9.2-4.1,9.2-9.2
			C157.4,145.2,153.3,141.1,148.3,141.1z"/>
		<path class="logo-st0" d="M125.4,141.1c-5.1,0-9.2,4.1-9.2,9.2s4.1,9.2,9.2,9.2s9.2-4.1,9.2-9.2C134.5,145.2,130.4,141.1,125.4,141.1z"
			/>
		<path class="logo-st0" d="M102.5,141.1c-5,0-9.2,4.1-9.2,9.2s4.1,9.2,9.2,9.2c5.1,0,9.2-4.1,9.2-9.2
			C111.6,145.2,107.5,141.1,102.5,141.1z"/>
		<path class="logo-st0" d="M157.4,122.8c0-5-4.1-9.2-9.2-9.2c-5.1,0-9.2,4.1-9.2,9.2s4.1,9.2,9.2,9.2C153.3,132,157.4,127.9,157.4,122.8
			z"/>
		<path class="logo-st0" d="M134.5,122.8c0-5-4.1-9.2-9.2-9.2c-5,0-9.2,4.1-9.2,9.2s4.1,9.2,9.2,9.2C130.4,132,134.5,127.9,134.5,122.8z"
			/>
		<path class="logo-st0" d="M111.6,122.8c0-5-4.1-9.2-9.2-9.2c-5.1,0-9.2,4.1-9.2,9.2s4.1,9.2,9.2,9.2C107.5,132,111.6,127.9,111.6,122.8
			z"/>
		<path class="logo-st0" d="M180.3,122.8c0-5-4.1-9.2-9.2-9.2s-9.2,4.1-9.2,9.2s4.1,9.2,9.2,9.2S180.3,127.9,180.3,122.8z"/>
	</g>
</g>
</svg>
