<?xml version="1.0" encoding="UTF-8" standalone="no"?>
<!-- Generator: Adobe Illustrator 26.0.3, SVG Export Plug-In . SVG Version: 6.00 Build 0)  -->

<svg version="1.1" id="Layer_1" x="0px" y="0px" viewBox="0 0 593.59961 265.30004" xml:space="preserve"
   width="593.59961" height="265.30005" xmlns="http://www.w3.org/2000/svg" xmlns:svg="http://www.w3.org/2000/svg"><defs id="defs103" />
<style type="text/css" id="style2">
	.st0{fill:#051E57;}
</style>
<g id="g98" transform="translate(-5.2001953,-4.1999604)">
	<g id="g76">
		<path class="st0" d="m 37.4,168.7 c -5.1,0 -9.2,4.1 -9.2,9.2 0,5 4.1,9.2 9.2,9.2 5,0 9.2,-4.1 9.2,-9.2 -0.1,-5.1 -4.2,-9.2 -9.2,-9.2 z" id="path4" />
		<path class="st0" d="m 37.4,196.2 c -5.1,0 -9.2,4.1 -9.2,9.2 0,5 4.1,9.2 9.2,9.2 5,0 9.2,-4.1 9.2,-9.2 0,-5.1 -4.2,-9.2 -9.2,-9.2 z" id="path6" />
		<path class="st0" d="m 37.4,141.2 c -5.1,0 -9.2,4.1 -9.2,9.2 0,5.1 4.1,9.2 9.2,9.2 5,0 9.2,-4.1 9.2,-9.2 -0.1,-5.1 -4.2,-9.2 -9.2,-9.2 z" id="path8" />
		<path class="st0" d="m 37.4,113.8 c -5.1,0 -9.2,4.1 -9.2,9.2 0,5.1 4.1,9.2 9.2,9.2 5,0 9.2,-4.1 9.2,-9.2 0,-5.1 -4.2,-9.2 -9.2,-9.2 z" id="path10" />
		<path class="st0" d="m 37.4,86.3 c -5.1,0 -9.2,4.1 -9.2,9.2 0,5 4.1,9.2 9.2,9.2 5,0 9.2,-4.1 9.2,-9.2 -0.1,-5.1 -4.2,-9.2 -9.2,-9.2 z" id="path12" />
		<path class="st0" d="m 37.4,58.9 c -5.1,0 -9.2,4.1 -9.2,9.2 0,5.1 4.1,9.2 9.2,9.2 5,0 9.2,-4.1 9.2,-9.2 -0.1,-5 -4.2,-9.2 -9.2,-9.2 z" id="path14" />
		<path class="st0" d="m 37.4,31.6 c -5.1,0 -9.2,4.1 -9.2,9.2 0,5.1 4.1,9.2 9.2,9.2 5,0 9.2,-4.1 9.2,-9.2 -0.1,-5.1 -4.2,-9.2 -9.2,-9.2 z" id="path16" />
		
			<circle transform="matrix(0.00908979,-1,1,0.00908979,-81.1565,109.0111)" class="st0" cx="14.4" cy="95.5" id="ellipse18" r="9.1999998" />
		<path class="st0" d="m 14.4,58.9 c -5.1,0 -9.2,4.1 -9.2,9.2 0,5.1 4.1,9.2 9.2,9.2 5.1,0 9.2,-4.1 9.2,-9.2 0,-5 -4.1,-9.2 -9.2,-9.2 z" id="path20" />
		<path class="st0" d="m 14.4,31.6 c -5.1,0 -9.2,4.1 -9.2,9.2 0,5 4.1,9.2 9.2,9.2 5.1,0 9.2,-4.1 9.2,-9.2 0,-5.1 -4.1,-9.2 -9.2,-9.2 z" id="path22" />
		<path class="st0" d="m 14.4,168.7 c -5.1,0 -9.2,4.1 -9.2,9.2 0,5 4.1,9.2 9.2,9.2 5.1,0 9.2,-4.1 9.2,-9.2 0,-5.1 -4.1,-9.2 -9.2,-9.2 z" id="path24" />
		<path class="st0" d="m 14.4,196.2 c -5.1,0 -9.2,4.1 -9.2,9.2 0,5.1 4.1,9.2 9.2,9.2 5.1,0 9.2,-4.1 9.2,-9.2 0,-5.1 -4.1,-9.2 -9.2,-9.2 z" id="path26" />
		<path class="st0" d="m 14.4,141.2 c -5.1,0 -9.2,4.1 -9.2,9.2 0,5 4.1,9.2 9.2,9.2 5.1,0 9.2,-4.1 9.2,-9.2 0,-5.1 -4.1,-9.2 -9.2,-9.2 z" id="path28" />
		
			<circle transform="matrix(0.00908979,-1,1,0.00908979,-108.5554,136.162)" class="st0" cx="14.4" cy="122.9" id="ellipse30" r="9.1999998" />
		<path class="st0" d="m 37.4,251.1 c -5.1,0 -9.2,4.1 -9.2,9.2 0,5.1 4.1,9.2 9.2,9.2 5,0 9.2,-4.1 9.2,-9.2 -0.1,-5.1 -4.2,-9.2 -9.2,-9.2 z" id="path32" />
		<path class="st0" d="m 37.4,223.6 c -5.1,0 -9.2,4.1 -9.2,9.2 0,5.1 4.1,9.2 9.2,9.2 5,0 9.2,-4.1 9.2,-9.2 -0.1,-5.1 -4.2,-9.2 -9.2,-9.2 z" id="path34" />
		<path class="st0" d="m 14.4,223.6 c -5.1,0 -9.2,4.1 -9.2,9.2 0,5 4.1,9.2 9.2,9.2 5.1,0 9.2,-4.1 9.2,-9.2 0,-5.1 -4.1,-9.2 -9.2,-9.2 z" id="path36" />
		<path class="st0" d="m 174.9,4.3 c -5.1,0 -9.2,4.1 -9.2,9.2 0,5.1 4.1,9.2 9.2,9.2 5.1,0 9.2,-4.1 9.2,-9.2 0,-5.1 -4.1,-9.2 -9.2,-9.2 z" id="path38" />
		<path class="st0" d="m 152,31.6 c -5,0 -9.2,4.1 -9.2,9.2 0,5.1 4.1,9.2 9.2,9.2 5.1,0 9.2,-4.1 9.2,-9.2 0,-5.1 -4.1,-9.2 -9.2,-9.2 z" id="path40" />
		<path class="st0" d="m 129,31.6 c -5.1,0 -9.2,4.1 -9.2,9.2 0,5.1 4.1,9.2 9.2,9.2 5.1,0 9.2,-4.1 9.2,-9.2 0,-5.1 -4.2,-9.2 -9.2,-9.2 z" id="path42" />
		<path class="st0" d="m 106,31.6 c -5.1,0 -9.2,4.1 -9.2,9.2 0,5.1 4.1,9.2 9.2,9.2 5,0 9.2,-4.1 9.2,-9.2 0,-5.1 -4.1,-9.2 -9.2,-9.2 z" id="path44" />
		<path class="st0" d="m 83.2,31.6 c -5.1,0 -9.2,4.1 -9.2,9.2 0,5.1 4.1,9.2 9.2,9.2 5.1,0 9.2,-4.1 9.2,-9.2 0,-5.1 -4.2,-9.2 -9.2,-9.2 z" id="path46" />
		<path class="st0" d="m 60.3,31.6 c -5,0 -9.2,4.1 -9.2,9.2 0,5.1 4.1,9.2 9.2,9.2 5.1,0 9.2,-4.1 9.2,-9.2 -0.1,-5.1 -4.2,-9.2 -9.2,-9.2 z" id="path48" />
		<path class="st0" d="m 83.2,22.6 c 5.1,0 9.2,-4.1 9.2,-9.2 0,-5 -4.1,-9.2 -9.2,-9.2 -5.1,0 -9.2,4.1 -9.2,9.2 0,5.1 4.1,9.2 9.2,9.2 z" id="path50" />
		<path class="st0" d="m 60.3,22.6 c 5.1,0 9.2,-4.1 9.2,-9.2 0,-5 -4.1,-9.2 -9.2,-9.2 -5,0 -9.2,4.1 -9.2,9.2 0,5.1 4.1,9.2 9.2,9.2 z" id="path52" />
		<path class="st0" d="m 37.4,22.6 c 5,0 9.2,-4.1 9.2,-9.2 0,-5 -4.1,-9.2 -9.2,-9.2 -5.1,0 -9.2,4.1 -9.2,9.2 0,5.1 4.1,9.2 9.2,9.2 z" id="path54" />
		<path class="st0" d="m 161.2,13.4 c 0,-5 -4.1,-9.2 -9.2,-9.2 -5,0 -9.2,4.1 -9.2,9.2 0,5.1 4.1,9.2 9.2,9.2 5.1,0 9.2,-4.1 9.2,-9.2 z" id="path56" />
		<path class="st0" d="m 138.1,13.4 c 0,-5 -4.1,-9.2 -9.2,-9.2 -5.1,0 -9.2,4.1 -9.2,9.2 0,5.1 4.1,9.2 9.2,9.2 5.1,0 9.2,-4.1 9.2,-9.2 z" id="path58" />
		<path class="st0" d="m 106,22.6 c 5.1,0 9.2,-4.1 9.2,-9.2 0,-5 -4.1,-9.2 -9.2,-9.2 -5.1,0 -9.2,4.1 -9.2,9.2 0.1,5.1 4.2,9.2 9.2,9.2 z" id="path60" />
		<path class="st0" d="m 106.1,141.2 c -5.1,0 -9.2,4.1 -9.2,9.2 0,5.1 4.1,9.2 9.2,9.2 5,0 9.2,-4.1 9.2,-9.2 -0.1,-5.1 -4.2,-9.2 -9.2,-9.2 z" id="path62" />
		<path class="st0" d="m 83.2,141.2 c -5.1,0 -9.2,4.1 -9.2,9.2 0,5.1 4.1,9.2 9.2,9.2 5.1,0 9.2,-4.1 9.2,-9.2 -0.1,-5.1 -4.2,-9.2 -9.2,-9.2 z" id="path64" />
		<path class="st0" d="m 60.3,141.2 c -5,0 -9.2,4.1 -9.2,9.2 0,5.1 4.1,9.2 9.2,9.2 5.1,0 9.2,-4.1 9.2,-9.2 -0.1,-5.1 -4.2,-9.2 -9.2,-9.2 z" id="path66" />
		<path class="st0" d="m 115.2,122.9 c 0,-5 -4.1,-9.2 -9.2,-9.2 -5.1,0 -9.2,4.1 -9.2,9.2 0,5.1 4.1,9.2 9.2,9.2 5.1,0 9.2,-4.1 9.2,-9.2 z" id="path68" />
		<path class="st0" d="m 92.3,122.9 c 0,-5 -4.1,-9.2 -9.2,-9.2 -5,0 -9.2,4.1 -9.2,9.2 0,5.1 4.1,9.2 9.2,9.2 5.1,0 9.2,-4.1 9.2,-9.2 z" id="path70" />
		<path class="st0" d="m 69.4,122.9 c 0,-5 -4.1,-9.2 -9.2,-9.2 -5.1,0 -9.2,4.1 -9.2,9.2 0,5.1 4.1,9.2 9.2,9.2 5.1,0 9.2,-4.1 9.2,-9.2 z" id="path72" />
		<path class="st0" d="m 138.1,122.9 c 0,-5 -4.1,-9.2 -9.2,-9.2 -5.1,0 -9.2,4.1 -9.2,9.2 0,5.1 4.1,9.2 9.2,9.2 5.1,0 9.2,-4.1 9.2,-9.2 z" id="path74" />
	</g>
	<g id="g96">
		<g id="g94">
			<path class="st0" d="m 245.8,115.3 v 32.1 h 46 v 11 h -46 v 38 h -13 v -92 h 65 v 11 z" id="path78" />
			<path class="st0" d="m 403.8,184.4 v 12 h -67 v -92 h 65 v 11 h -52 v 28 h 46 v 11 h -46 v 30 z" id="path80" />
			<path class="st0" d="m 445.8,104.4 h 13 v 80 h 50 v 12 h -63 z" id="path82" />
			<path class="st0" d="m 553.8,115.4 h -31 v -11 h 76 v 11 h -32 v 80 h -13 z" id="path84" />
		</g>
	</g>
</g>
</svg>
